<svg width="686" height="159" xmlns="http://www.w3.org/2000/svg">
    <style>
        /* 默认浅色模式 */
        .bg { fill: #ffffff; }
        .text-primary { fill: #24292f; }
        .text-secondary { fill: #57606a; }
        .level-0 { fill: #ebedf0; }
        .level-1 { fill: #9be9a8; }
        .level-2 { fill: #40c463; }
        .level-3 { fill: #30a14e; }
        .level-4 { fill: #216e39; }
        
        /* 深色模式 */
        @media (prefers-color-scheme: dark) {
            .bg { fill: #0d1117; }
            .text-primary { fill: #c9d1d9; }
            .text-secondary { fill: #8b949e; }
            .level-0 { fill: #161b22; }
            .level-1 { fill: #0e4429; }
            .level-2 { fill: #006d32; }
            .level-3 { fill: #26a641; }
            .level-4 { fill: #39d353; }
        }
    </style>
    <rect width="686" height="159" class="bg"/><text x="10" y="15" font-family="-apple-system, BlinkMacSystemFont, Segoe UI, Helvetica, Arial, sans-serif" font-size="14" class="text-primary" font-weight="600">2026 Contributions</text><text x="5" y="57" font-family="-apple-system, BlinkMacSystemFont, Segoe UI, Helvetica, Arial, sans-serif" font-size="9" class="text-secondary" text-anchor="start">Mon</text><text x="5" y="81" font-family="-apple-system, BlinkMacSystemFont, Segoe UI, Helvetica, Arial, sans-serif" font-size="9" class="text-secondary" text-anchor="start">Wed</text><text x="5" y="105" font-family="-apple-system, BlinkMacSystemFont, Segoe UI, Helvetica, Arial, sans-serif" font-size="9" class="text-secondary" text-anchor="start">Fri</text><text x="42" y="32" font-family="-apple-system, BlinkMacSystemFont, Segoe UI, Helvetica, Arial, sans-serif" font-size="10" class="text-secondary">Jan</text><text x="90" y="32" font-family="-apple-system, BlinkMacSystemFont, Segoe UI, Helvetica, Arial, sans-serif" font-size="10" class="text-secondary">Feb</text><text x="138" y="32" font-family="-apple-system, BlinkMacSystemFont, Segoe UI, Helvetica, Arial, sans-serif" font-size="10" class="text-secondary">Mar</text><text x="198" y="32" font-family="-apple-system, BlinkMacSystemFont, Segoe UI, Helvetica, Arial, sans-serif" font-size="10" class="text-secondary">Apr</text><text x="246" y="32" font-family="-apple-system, BlinkMacSystemFont, Segoe UI, Helvetica, Arial, sans-serif" font-size="10" class="text-secondary">May</text><text x="306" y="32" font-family="-apple-system, BlinkMacSystemFont, Segoe UI, Helvetica, Arial, sans-serif" font-size="10" class="text-secondary">Jun</text><text x="354" y="32" font-family="-apple-system, BlinkMacSystemFont, Segoe UI, Helvetica, Arial, sans-serif" font-size="10" class="text-secondary">Jul</text><text x="402" y="32" font-family="-apple-system, BlinkMacSystemFont, Segoe UI, Helvetica, Arial, sans-serif" font-size="10" class="text-secondary">Aug</text><text x="462" y="32" font-family="-apple-system, BlinkMacSystemFont, Segoe UI, Helvetica, Arial, sans-serif" font-size="10" class="text-secondary">Sep</text><text x="510" y="32" font-family="-apple-system, BlinkMacSystemFont, Segoe UI, Helvetica, Arial, sans-serif" font-size="10" class="text-secondary">Oct</text><text x="558" y="32" font-family="-apple-system, BlinkMacSystemFont, Segoe UI, Helvetica, Arial, sans-serif" font-size="10" class="text-secondary">Nov</text><text x="618" y="32" font-family="-apple-system, BlinkMacSystemFont, Segoe UI, Helvetica, Arial, sans-serif" font-size="10" class="text-secondary">Dec</text><rect x="30" y="83" width="10" height="10" class="level-0" rx="2" ry="2"><title>2026-01-01: 0 contributions</title></rect><rect x="30" y="95" width="10" height="10" class="level-0" rx="2" ry="2"><title>2026-01-02: 0 contributions</title></rect><rect x="30" y="107" width="10" height="10" class="level-0" rx="2" ry="2"><title>2026-01-03: 0 contributions</title></rect><rect x="42" y="35" width="10" height="10" class="level-0" rx="2" ry="2"><title>2026-01-04: 0 contributions</title></rect><rect x="42" y="47" width="10" height="10" class="level-0" rx="2" ry="2"><title>2026-01-05: 0 contributions</title></rect><rect x="42" y="59" width="10" height="10" class="level-0" rx="2" ry="2"><title>2026-01-06: 0 contributions</title></rect><rect x="42" y="71" width="10" height="10" class="level-0" rx="2" ry="2"><title>2026-01-07: 0 contributions</title></rect><rect x="42" y="83" width="10" height="10" class="level-1" rx="2" ry="2"><title>2026-01-08: 4 contributions</title></rect><rect x="42" y="95" width="10" height="10" class="level-1" rx="2" ry="2"><title>2026-01-09: 1 contributions</title></rect><rect x="42" y="107" width="10" height="10" class="level-0" rx="2" ry="2"><title>2026-01-10: 0 contributions</title></rect><rect x="54" y="35" width="10" height="10" class="level-0" rx="2" ry="2"><title>2026-01-11: 0 contributions</title></rect><rect x="54" y="47" width="10" height="10" class="level-0" rx="2" ry="2"><title>2026-01-12: 0 contributions</title></rect><rect x="54" y="59" width="10" height="10" class="level-0" rx="2" ry="2"><title>2026-01-13: 0 contributions</title></rect><rect x="54" y="71" width="10" height="10" class="level-0" rx="2" ry="2"><title>2026-01-14: 0 contributions</title></rect><rect x="54" y="83" width="10" height="10" class="level-0" rx="2" ry="2"><title>2026-01-15: 0 contributions</title></rect><rect x="54" y="95" width="10" height="10" class="level-0" rx="2" ry="2"><title>2026-01-16: 0 contributions</title></rect><rect x="54" y="107" width="10" height="10" class="level-0" rx="2" ry="2"><title>2026-01-17: 0 contributions</title></rect><rect x="66" y="35" width="10" height="10" class="level-0" rx="2" ry="2"><title>2026-01-18: 0 contributions</title></rect><rect x="66" y="47" width="10" height="10" class="level-2" rx="2" ry="2"><title>2026-01-19: 22 contributions</title></rect><rect x="66" y="59" width="10" height="10" class="level-1" rx="2" ry="2"><title>2026-01-20: 6 contributions</title></rect><rect x="66" y="71" width="10" height="10" class="level-1" rx="2" ry="2"><title>2026-01-21: 3 contributions</title></rect><rect x="66" y="83" width="10" height="10" class="level-1" rx="2" ry="2"><title>2026-01-22: 18 contributions</title></rect><rect x="66" y="95" width="10" height="10" class="level-1" rx="2" ry="2"><title>2026-01-23: 6 contributions</title></rect><rect x="66" y="107" width="10" height="10" class="level-1" rx="2" ry="2"><title>2026-01-24: 4 contributions</title></rect><rect x="78" y="35" width="10" height="10" class="level-0" rx="2" ry="2"><title>2026-01-25: 0 contributions</title></rect><rect x="78" y="47" width="10" height="10" class="level-1" rx="2" ry="2"><title>2026-01-26: 8 contributions</title></rect><rect x="78" y="59" width="10" height="10" class="level-1" rx="2" ry="2"><title>2026-01-27: 7 contributions</title></rect><rect x="78" y="71" width="10" height="10" class="level-1" rx="2" ry="2"><title>2026-01-28: 10 contributions</title></rect><rect x="78" y="83" width="10" height="10" class="level-1" rx="2" ry="2"><title>2026-01-29: 1 contributions</title></rect><rect x="78" y="95" width="10" height="10" class="level-1" rx="2" ry="2"><title>2026-01-30: 9 contributions</title></rect><rect x="78" y="107" width="10" height="10" class="level-1" rx="2" ry="2"><title>2026-01-31: 4 contributions</title></rect><rect x="90" y="35" width="10" height="10" class="level-0" rx="2" ry="2"><title>2026-02-01: 0 contributions</title></rect><rect x="90" y="47" width="10" height="10" class="level-1" rx="2" ry="2"><title>2026-02-02: 6 contributions</title></rect><rect x="90" y="59" width="10" height="10" class="level-1" rx="2" ry="2"><title>2026-02-03: 13 contributions</title></rect><rect x="90" y="71" width="10" height="10" class="level-4" rx="2" ry="2"><title>2026-02-04: 76 contributions</title></rect><rect x="90" y="83" width="10" height="10" class="level-3" rx="2" ry="2"><title>2026-02-05: 52 contributions</title></rect><rect x="90" y="95" width="10" height="10" class="level-1" rx="2" ry="2"><title>2026-02-06: 2 contributions</title></rect><rect x="90" y="107" width="10" height="10" class="level-4" rx="2" ry="2"><title>2026-02-07: 82 contributions</title></rect><rect x="102" y="35" width="10" height="10" class="level-2" rx="2" ry="2"><title>2026-02-08: 32 contributions</title></rect><rect x="102" y="47" width="10" height="10" class="level-0" rx="2" ry="2"><title>2026-02-09: 0 contributions</title></rect><rect x="102" y="59" width="10" height="10" class="level-0" rx="2" ry="2"><title>2026-02-10: 0 contributions</title></rect><rect x="102" y="71" width="10" height="10" class="level-0" rx="2" ry="2"><title>2026-02-11: 0 contributions</title></rect><rect x="102" y="83" width="10" height="10" class="level-0" rx="2" ry="2"><title>2026-02-12: 0 contributions</title></rect><rect x="102" y="95" width="10" height="10" class="level-0" rx="2" ry="2"><title>2026-02-13: 0 contributions</title></rect><rect x="102" y="107" width="10" height="10" class="level-0" rx="2" ry="2"><title>2026-02-14: 0 contributions</title></rect><rect x="114" y="35" width="10" height="10" class="level-0" rx="2" ry="2"><title>2026-02-15: 0 contributions</title></rect><rect x="114" y="47" width="10" height="10" class="level-0" rx="2" ry="2"><title>2026-02-16: 0 contributions</title></rect><rect x="114" y="59" width="10" height="10" class="level-0" rx="2" ry="2"><title>2026-02-17: 0 contributions</title></rect><rect x="114" y="71" width="10" height="10" class="level-0" rx="2" ry="2"><title>2026-02-18: 0 contributions</title></rect><rect x="114" y="83" width="10" height="10" class="level-0" rx="2" ry="2"><title>2026-02-19: 0 contributions</title></rect><rect x="114" y="95" width="10" height="10" class="level-0" rx="2" ry="2"><title>2026-02-20: 0 contributions</title></rect><rect x="114" y="107" width="10" height="10" class="level-0" rx="2" ry="2"><title>2026-02-21: 0 contributions</title></rect><rect x="126" y="35" width="10" height="10" class="level-0" rx="2" ry="2"><title>2026-02-22: 0 contributions</title></rect><rect x="126" y="47" width="10" height="10" class="level-0" rx="2" ry="2"><title>2026-02-23: 0 contributions</title></rect><rect x="126" y="59" width="10" height="10" class="level-0" rx="2" ry="2"><title>2026-02-24: 0 contributions</title></rect><rect x="126" y="71" width="10" height="10" class="level-0" rx="2" ry="2"><title>2026-02-25: 0 contributions</title></rect><rect x="126" y="83" width="10" height="10" class="level-0" rx="2" ry="2"><title>2026-02-26: 0 contributions</title></rect><rect x="126" y="95" width="10" height="10" class="level-0" rx="2" ry="2"><title>2026-02-27: 0 contributions</title></rect><rect x="126" y="107" width="10" height="10" class="level-0" rx="2" ry="2"><title>2026-02-28: 0 contributions</title></rect><rect x="138" y="35" width="10" height="10" class="level-0" rx="2" ry="2"><title>2026-03-01: 0 contributions</title></rect><rect x="138" y="47" width="10" height="10" class="level-0" rx="2" ry="2"><title>2026-03-02: 0 contributions</title></rect><rect x="138" y="59" width="10" height="10" class="level-0" rx="2" ry="2"><title>2026-03-03: 0 contributions</title></rect><rect x="138" y="71" width="10" height="10" class="level-0" rx="2" ry="2"><title>2026-03-04: 0 contributions</title></rect><rect x="138" y="83" width="10" height="10" class="level-0" rx="2" ry="2"><title>2026-03-05: 0 contributions</title></rect><rect x="138" y="95" width="10" height="10" class="level-0" rx="2" ry="2"><title>2026-03-06: 0 contributions</title></rect><rect x="138" y="107" width="10" height="10" class="level-0" rx="2" ry="2"><title>2026-03-07: 0 contributions</title></rect><rect x="150" y="35" width="10" height="10" class="level-0" rx="2" ry="2"><title>2026-03-08: 0 contributions</title></rect><rect x="150" y="47" width="10" height="10" class="level-0" rx="2" ry="2"><title>2026-03-09: 0 contributions</title></rect><rect x="150" y="59" width="10" height="10" class="level-0" rx="2" ry="2"><title>2026-03-10: 0 contributions</title></rect><rect x="150" y="71" width="10" height="10" class="level-0" rx="2" ry="2"><title>2026-03-11: 0 contributions</title></rect><rect x="150" y="83" width="10" height="10" class="level-0" rx="2" ry="2"><title>2026-03-12: 0 contributions</title></rect><rect x="150" y="95" width="10" height="10" class="level-0" rx="2" ry="2"><title>2026-03-13: 0 contributions</title></rect><rect x="150" y="107" width="10" height="10" class="level-0" rx="2" ry="2"><title>2026-03-14: 0 contributions</title></rect><rect x="162" y="35" width="10" height="10" class="level-0" rx="2" ry="2"><title>2026-03-15: 0 contributions</title></rect><rect x="162" y="47" width="10" height="10" class="level-0" rx="2" ry="2"><title>2026-03-16: 0 contributions</title></rect><rect x="162" y="59" width="10" height="10" class="level-0" rx="2" ry="2"><title>2026-03-17: 0 contributions</title></rect><rect x="162" y="71" width="10" height="10" class="level-0" rx="2" ry="2"><title>2026-03-18: 0 contributions</title></rect><rect x="162" y="83" width="10" height="10" class="level-0" rx="2" ry="2"><title>2026-03-19: 0 contributions</title></rect><rect x="162" y="95" width="10" height="10" class="level-0" rx="2" ry="2"><title>2026-03-20: 0 contributions</title></rect><rect x="162" y="107" width="10" height="10" class="level-0" rx="2" ry="2"><title>2026-03-21: 0 contributions</title></rect><rect x="174" y="35" width="10" height="10" class="level-0" rx="2" ry="2"><title>2026-03-22: 0 contributions</title></rect><rect x="174" y="47" width="10" height="10" class="level-0" rx="2" ry="2"><title>2026-03-23: 0 contributions</title></rect><rect x="174" y="59" width="10" height="10" class="level-0" rx="2" ry="2"><title>2026-03-24: 0 contributions</title></rect><rect x="174" y="71" width="10" height="10" class="level-0" rx="2" ry="2"><title>2026-03-25: 0 contributions</title></rect><rect x="174" y="83" width="10" height="10" class="level-0" rx="2" ry="2"><title>2026-03-26: 0 contributions</title></rect><rect x="174" y="95" width="10" height="10" class="level-0" rx="2" ry="2"><title>2026-03-27: 0 contributions</title></rect><rect x="174" y="107" width="10" height="10" class="level-0" rx="2" ry="2"><title>2026-03-28: 0 contributions</title></rect><rect x="186" y="35" width="10" height="10" class="level-0" rx="2" ry="2"><title>2026-03-29: 0 contributions</title></rect><rect x="186" y="47" width="10" height="10" class="level-0" rx="2" ry="2"><title>2026-03-30: 0 contributions</title></rect><rect x="186" y="59" width="10" height="10" class="level-0" rx="2" ry="2"><title>2026-03-31: 0 contributions</title></rect><rect x="186" y="71" width="10" height="10" class="level-0" rx="2" ry="2"><title>2026-04-01: 0 contributions</title></rect><rect x="186" y="83" width="10" height="10" class="level-0" rx="2" ry="2"><title>2026-04-02: 0 contributions</title></rect><rect x="186" y="95" width="10" height="10" class="level-0" rx="2" ry="2"><title>2026-04-03: 0 contributions</title></rect><rect x="186" y="107" width="10" height="10" class="level-0" rx="2" ry="2"><title>2026-04-04: 0 contributions</title></rect><rect x="198" y="35" width="10" height="10" class="level-0" rx="2" ry="2"><title>2026-04-05: 0 contributions</title></rect><rect x="198" y="47" width="10" height="10" class="level-0" rx="2" ry="2"><title>2026-04-06: 0 contributions</title></rect><rect x="198" y="59" width="10" height="10" class="level-0" rx="2" ry="2"><title>2026-04-07: 0 contributions</title></rect><rect x="198" y="71" width="10" height="10" class="level-0" rx="2" ry="2"><title>2026-04-08: 0 contributions</title></rect><rect x="198" y="83" width="10" height="10" class="level-0" rx="2" ry="2"><title>2026-04-09: 0 contributions</title></rect><rect x="198" y="95" width="10" height="10" class="level-0" rx="2" ry="2"><title>2026-04-10: 0 contributions</title></rect><rect x="198" y="107" width="10" height="10" class="level-0" rx="2" ry="2"><title>2026-04-11: 0 contributions</title></rect><rect x="210" y="35" width="10" height="10" class="level-0" rx="2" ry="2"><title>2026-04-12: 0 contributions</title></rect><rect x="210" y="47" width="10" height="10" class="level-0" rx="2" ry="2"><title>2026-04-13: 0 contributions</title></rect><rect x="210" y="59" width="10" height="10" class="level-0" rx="2" ry="2"><title>2026-04-14: 0 contributions</title></rect><rect x="210" y="71" width="10" height="10" class="level-0" rx="2" ry="2"><title>2026-04-15: 0 contributions</title></rect><rect x="210" y="83" width="10" height="10" class="level-0" rx="2" ry="2"><title>2026-04-16: 0 contributions</title></rect><rect x="210" y="95" width="10" height="10" class="level-0" rx="2" ry="2"><title>2026-04-17: 0 contributions</title></rect><rect x="210" y="107" width="10" height="10" class="level-0" rx="2" ry="2"><title>2026-04-18: 0 contributions</title></rect><rect x="222" y="35" width="10" height="10" class="level-0" rx="2" ry="2"><title>2026-04-19: 0 contributions</title></rect><rect x="222" y="47" width="10" height="10" class="level-0" rx="2" ry="2"><title>2026-04-20: 0 contributions</title></rect><rect x="222" y="59" width="10" height="10" class="level-0" rx="2" ry="2"><title>2026-04-21: 0 contributions</title></rect><rect x="222" y="71" width="10" height="10" class="level-0" rx="2" ry="2"><title>2026-04-22: 0 contributions</title></rect><rect x="222" y="83" width="10" height="10" class="level-0" rx="2" ry="2"><title>2026-04-23: 0 contributions</title></rect><rect x="222" y="95" width="10" height="10" class="level-0" rx="2" ry="2"><title>2026-04-24: 0 contributions</title></rect><rect x="222" y="107" width="10" height="10" class="level-0" rx="2" ry="2"><title>2026-04-25: 0 contributions</title></rect><rect x="234" y="35" width="10" height="10" class="level-0" rx="2" ry="2"><title>2026-04-26: 0 contributions</title></rect><rect x="234" y="47" width="10" height="10" class="level-0" rx="2" ry="2"><title>2026-04-27: 0 contributions</title></rect><rect x="234" y="59" width="10" height="10" class="level-0" rx="2" ry="2"><title>2026-04-28: 0 contributions</title></rect><rect x="234" y="71" width="10" height="10" class="level-0" rx="2" ry="2"><title>2026-04-29: 0 contributions</title></rect><rect x="234" y="83" width="10" height="10" class="level-0" rx="2" ry="2"><title>2026-04-30: 0 contributions</title></rect><rect x="234" y="95" width="10" height="10" class="level-0" rx="2" ry="2"><title>2026-05-01: 0 contributions</title></rect><rect x="234" y="107" width="10" height="10" class="level-0" rx="2" ry="2"><title>2026-05-02: 0 contributions</title></rect><rect x="246" y="35" width="10" height="10" class="level-0" rx="2" ry="2"><title>2026-05-03: 0 contributions</title></rect><rect x="246" y="47" width="10" height="10" class="level-0" rx="2" ry="2"><title>2026-05-04: 0 contributions</title></rect><rect x="246" y="59" width="10" height="10" class="level-0" rx="2" ry="2"><title>2026-05-05: 0 contributions</title></rect><rect x="246" y="71" width="10" height="10" class="level-0" rx="2" ry="2"><title>2026-05-06: 0 contributions</title></rect><rect x="246" y="83" width="10" height="10" class="level-0" rx="2" ry="2"><title>2026-05-07: 0 contributions</title></rect><rect x="246" y="95" width="10" height="10" class="level-0" rx="2" ry="2"><title>2026-05-08: 0 contributions</title></rect><rect x="246" y="107" width="10" height="10" class="level-0" rx="2" ry="2"><title>2026-05-09: 0 contributions</title></rect><rect x="258" y="35" width="10" height="10" class="level-0" rx="2" ry="2"><title>2026-05-10: 0 contributions</title></rect><rect x="258" y="47" width="10" height="10" class="level-0" rx="2" ry="2"><title>2026-05-11: 0 contributions</title></rect><rect x="258" y="59" width="10" height="10" class="level-0" rx="2" ry="2"><title>2026-05-12: 0 contributions</title></rect><rect x="258" y="71" width="10" height="10" class="level-0" rx="2" ry="2"><title>2026-05-13: 0 contributions</title></rect><rect x="258" y="83" width="10" height="10" class="level-0" rx="2" ry="2"><title>2026-05-14: 0 contributions</title></rect><rect x="258" y="95" width="10" height="10" class="level-0" rx="2" ry="2"><title>2026-05-15: 0 contributions</title></rect><rect x="258" y="107" width="10" height="10" class="level-0" rx="2" ry="2"><title>2026-05-16: 0 contributions</title></rect><rect x="270" y="35" width="10" height="10" class="level-0" rx="2" ry="2"><title>2026-05-17: 0 contributions</title></rect><rect x="270" y="47" width="10" height="10" class="level-0" rx="2" ry="2"><title>2026-05-18: 0 contributions</title></rect><rect x="270" y="59" width="10" height="10" class="level-0" rx="2" ry="2"><title>2026-05-19: 0 contributions</title></rect><rect x="270" y="71" width="10" height="10" class="level-0" rx="2" ry="2"><title>2026-05-20: 0 contributions</title></rect><rect x="270" y="83" width="10" height="10" class="level-0" rx="2" ry="2"><title>2026-05-21: 0 contributions</title></rect><rect x="270" y="95" width="10" height="10" class="level-0" rx="2" ry="2"><title>2026-05-22: 0 contributions</title></rect><rect x="270" y="107" width="10" height="10" class="level-0" rx="2" ry="2"><title>2026-05-23: 0 contributions</title></rect><rect x="282" y="35" width="10" height="10" class="level-0" rx="2" ry="2"><title>2026-05-24: 0 contributions</title></rect><rect x="282" y="47" width="10" height="10" class="level-0" rx="2" ry="2"><title>2026-05-25: 0 contributions</title></rect><rect x="282" y="59" width="10" height="10" class="level-0" rx="2" ry="2"><title>2026-05-26: 0 contributions</title></rect><rect x="282" y="71" width="10" height="10" class="level-0" rx="2" ry="2"><title>2026-05-27: 0 contributions</title></rect><rect x="282" y="83" width="10" height="10" class="level-0" rx="2" ry="2"><title>2026-05-28: 0 contributions</title></rect><rect x="282" y="95" width="10" height="10" class="level-0" rx="2" ry="2"><title>2026-05-29: 0 contributions</title></rect><rect x="282" y="107" width="10" height="10" class="level-0" rx="2" ry="2"><title>2026-05-30: 0 contributions</title></rect><rect x="294" y="35" width="10" height="10" class="level-0" rx="2" ry="2"><title>2026-05-31: 0 contributions</title></rect><rect x="294" y="47" width="10" height="10" class="level-0" rx="2" ry="2"><title>2026-06-01: 0 contributions</title></rect><rect x="294" y="59" width="10" height="10" class="level-0" rx="2" ry="2"><title>2026-06-02: 0 contributions</title></rect><rect x="294" y="71" width="10" height="10" class="level-0" rx="2" ry="2"><title>2026-06-03: 0 contributions</title></rect><rect x="294" y="83" width="10" height="10" class="level-0" rx="2" ry="2"><title>2026-06-04: 0 contributions</title></rect><rect x="294" y="95" width="10" height="10" class="level-0" rx="2" ry="2"><title>2026-06-05: 0 contributions</title></rect><rect x="294" y="107" width="10" height="10" class="level-0" rx="2" ry="2"><title>2026-06-06: 0 contributions</title></rect><rect x="306" y="35" width="10" height="10" class="level-0" rx="2" ry="2"><title>2026-06-07: 0 contributions</title></rect><rect x="306" y="47" width="10" height="10" class="level-0" rx="2" ry="2"><title>2026-06-08: 0 contributions</title></rect><rect x="306" y="59" width="10" height="10" class="level-0" rx="2" ry="2"><title>2026-06-09: 0 contributions</title></rect><rect x="306" y="71" width="10" height="10" class="level-0" rx="2" ry="2"><title>2026-06-10: 0 contributions</title></rect><rect x="306" y="83" width="10" height="10" class="level-0" rx="2" ry="2"><title>2026-06-11: 0 contributions</title></rect><rect x="306" y="95" width="10" height="10" class="level-0" rx="2" ry="2"><title>2026-06-12: 0 contributions</title></rect><rect x="306" y="107" width="10" height="10" class="level-0" rx="2" ry="2"><title>2026-06-13: 0 contributions</title></rect><rect x="318" y="35" width="10" height="10" class="level-0" rx="2" ry="2"><title>2026-06-14: 0 contributions</title></rect><rect x="318" y="47" width="10" height="10" class="level-0" rx="2" ry="2"><title>2026-06-15: 0 contributions</title></rect><rect x="318" y="59" width="10" height="10" class="level-0" rx="2" ry="2"><title>2026-06-16: 0 contributions</title></rect><rect x="318" y="71" width="10" height="10" class="level-0" rx="2" ry="2"><title>2026-06-17: 0 contributions</title></rect><rect x="318" y="83" width="10" height="10" class="level-0" rx="2" ry="2"><title>2026-06-18: 0 contributions</title></rect><rect x="318" y="95" width="10" height="10" class="level-0" rx="2" ry="2"><title>2026-06-19: 0 contributions</title></rect><rect x="318" y="107" width="10" height="10" class="level-0" rx="2" ry="2"><title>2026-06-20: 0 contributions</title></rect><rect x="330" y="35" width="10" height="10" class="level-0" rx="2" ry="2"><title>2026-06-21: 0 contributions</title></rect><rect x="330" y="47" width="10" height="10" class="level-0" rx="2" ry="2"><title>2026-06-22: 0 contributions</title></rect><rect x="330" y="59" width="10" height="10" class="level-0" rx="2" ry="2"><title>2026-06-23: 0 contributions</title></rect><rect x="330" y="71" width="10" height="10" class="level-0" rx="2" ry="2"><title>2026-06-24: 0 contributions</title></rect><rect x="330" y="83" width="10" height="10" class="level-0" rx="2" ry="2"><title>2026-06-25: 0 contributions</title></rect><rect x="330" y="95" width="10" height="10" class="level-0" rx="2" ry="2"><title>2026-06-26: 0 contributions</title></rect><rect x="330" y="107" width="10" height="10" class="level-0" rx="2" ry="2"><title>2026-06-27: 0 contributions</title></rect><rect x="342" y="35" width="10" height="10" class="level-0" rx="2" ry="2"><title>2026-06-28: 0 contributions</title></rect><rect x="342" y="47" width="10" height="10" class="level-0" rx="2" ry="2"><title>2026-06-29: 0 contributions</title></rect><rect x="342" y="59" width="10" height="10" class="level-0" rx="2" ry="2"><title>2026-06-30: 0 contributions</title></rect><rect x="342" y="71" width="10" height="10" class="level-0" rx="2" ry="2"><title>2026-07-01: 0 contributions</title></rect><rect x="342" y="83" width="10" height="10" class="level-0" rx="2" ry="2"><title>2026-07-02: 0 contributions</title></rect><rect x="342" y="95" width="10" height="10" class="level-0" rx="2" ry="2"><title>2026-07-03: 0 contributions</title></rect><rect x="342" y="107" width="10" height="10" class="level-0" rx="2" ry="2"><title>2026-07-04: 0 contributions</title></rect><rect x="354" y="35" width="10" height="10" class="level-0" rx="2" ry="2"><title>2026-07-05: 0 contributions</title></rect><rect x="354" y="47" width="10" height="10" class="level-0" rx="2" ry="2"><title>2026-07-06: 0 contributions</title></rect><rect x="354" y="59" width="10" height="10" class="level-0" rx="2" ry="2"><title>2026-07-07: 0 contributions</title></rect><rect x="354" y="71" width="10" height="10" class="level-0" rx="2" ry="2"><title>2026-07-08: 0 contributions</title></rect><rect x="354" y="83" width="10" height="10" class="level-0" rx="2" ry="2"><title>2026-07-09: 0 contributions</title></rect><rect x="354" y="95" width="10" height="10" class="level-0" rx="2" ry="2"><title>2026-07-10: 0 contributions</title></rect><rect x="354" y="107" width="10" height="10" class="level-0" rx="2" ry="2"><title>2026-07-11: 0 contributions</title></rect><rect x="366" y="35" width="10" height="10" class="level-0" rx="2" ry="2"><title>2026-07-12: 0 contributions</title></rect><rect x="366" y="47" width="10" height="10" class="level-0" rx="2" ry="2"><title>2026-07-13: 0 contributions</title></rect><rect x="366" y="59" width="10" height="10" class="level-0" rx="2" ry="2"><title>2026-07-14: 0 contributions</title></rect><rect x="366" y="71" width="10" height="10" class="level-0" rx="2" ry="2"><title>2026-07-15: 0 contributions</title></rect><rect x="366" y="83" width="10" height="10" class="level-0" rx="2" ry="2"><title>2026-07-16: 0 contributions</title></rect><rect x="366" y="95" width="10" height="10" class="level-0" rx="2" ry="2"><title>2026-07-17: 0 contributions</title></rect><rect x="366" y="107" width="10" height="10" class="level-0" rx="2" ry="2"><title>2026-07-18: 0 contributions</title></rect><rect x="378" y="35" width="10" height="10" class="level-0" rx="2" ry="2"><title>2026-07-19: 0 contributions</title></rect><rect x="378" y="47" width="10" height="10" class="level-0" rx="2" ry="2"><title>2026-07-20: 0 contributions</title></rect><rect x="378" y="59" width="10" height="10" class="level-0" rx="2" ry="2"><title>2026-07-21: 0 contributions</title></rect><rect x="378" y="71" width="10" height="10" class="level-0" rx="2" ry="2"><title>2026-07-22: 0 contributions</title></rect><rect x="378" y="83" width="10" height="10" class="level-0" rx="2" ry="2"><title>2026-07-23: 0 contributions</title></rect><rect x="378" y="95" width="10" height="10" class="level-0" rx="2" ry="2"><title>2026-07-24: 0 contributions</title></rect><rect x="378" y="107" width="10" height="10" class="level-0" rx="2" ry="2"><title>2026-07-25: 0 contributions</title></rect><rect x="390" y="35" width="10" height="10" class="level-0" rx="2" ry="2"><title>2026-07-26: 0 contributions</title></rect><rect x="390" y="47" width="10" height="10" class="level-0" rx="2" ry="2"><title>2026-07-27: 0 contributions</title></rect><rect x="390" y="59" width="10" height="10" class="level-0" rx="2" ry="2"><title>2026-07-28: 0 contributions</title></rect><rect x="390" y="71" width="10" height="10" class="level-0" rx="2" ry="2"><title>2026-07-29: 0 contributions</title></rect><rect x="390" y="83" width="10" height="10" class="level-0" rx="2" ry="2"><title>2026-07-30: 0 contributions</title></rect><rect x="390" y="95" width="10" height="10" class="level-0" rx="2" ry="2"><title>2026-07-31: 0 contributions</title></rect><rect x="390" y="107" width="10" height="10" class="level-0" rx="2" ry="2"><title>2026-08-01: 0 contributions</title></rect><rect x="402" y="35" width="10" height="10" class="level-0" rx="2" ry="2"><title>2026-08-02: 0 contributions</title></rect><rect x="402" y="47" width="10" height="10" class="level-0" rx="2" ry="2"><title>2026-08-03: 0 contributions</title></rect><rect x="402" y="59" width="10" height="10" class="level-0" rx="2" ry="2"><title>2026-08-04: 0 contributions</title></rect><rect x="402" y="71" width="10" height="10" class="level-0" rx="2" ry="2"><title>2026-08-05: 0 contributions</title></rect><rect x="402" y="83" width="10" height="10" class="level-0" rx="2" ry="2"><title>2026-08-06: 0 contributions</title></rect><rect x="402" y="95" width="10" height="10" class="level-0" rx="2" ry="2"><title>2026-08-07: 0 contributions</title></rect><rect x="402" y="107" width="10" height="10" class="level-0" rx="2" ry="2"><title>2026-08-08: 0 contributions</title></rect><rect x="414" y="35" width="10" height="10" class="level-0" rx="2" ry="2"><title>2026-08-09: 0 contributions</title></rect><rect x="414" y="47" width="10" height="10" class="level-0" rx="2" ry="2"><title>2026-08-10: 0 contributions</title></rect><rect x="414" y="59" width="10" height="10" class="level-0" rx="2" ry="2"><title>2026-08-11: 0 contributions</title></rect><rect x="414" y="71" width="10" height="10" class="level-0" rx="2" ry="2"><title>2026-08-12: 0 contributions</title></rect><rect x="414" y="83" width="10" height="10" class="level-0" rx="2" ry="2"><title>2026-08-13: 0 contributions</title></rect><rect x="414" y="95" width="10" height="10" class="level-0" rx="2" ry="2"><title>2026-08-14: 0 contributions</title></rect><rect x="414" y="107" width="10" height="10" class="level-0" rx="2" ry="2"><title>2026-08-15: 0 contributions</title></rect><rect x="426" y="35" width="10" height="10" class="level-0" rx="2" ry="2"><title>2026-08-16: 0 contributions</title></rect><rect x="426" y="47" width="10" height="10" class="level-0" rx="2" ry="2"><title>2026-08-17: 0 contributions</title></rect><rect x="426" y="59" width="10" height="10" class="level-0" rx="2" ry="2"><title>2026-08-18: 0 contributions</title></rect><rect x="426" y="71" width="10" height="10" class="level-0" rx="2" ry="2"><title>2026-08-19: 0 contributions</title></rect><rect x="426" y="83" width="10" height="10" class="level-0" rx="2" ry="2"><title>2026-08-20: 0 contributions</title></rect><rect x="426" y="95" width="10" height="10" class="level-0" rx="2" ry="2"><title>2026-08-21: 0 contributions</title></rect><rect x="426" y="107" width="10" height="10" class="level-0" rx="2" ry="2"><title>2026-08-22: 0 contributions</title></rect><rect x="438" y="35" width="10" height="10" class="level-0" rx="2" ry="2"><title>2026-08-23: 0 contributions</title></rect><rect x="438" y="47" width="10" height="10" class="level-0" rx="2" ry="2"><title>2026-08-24: 0 contributions</title></rect><rect x="438" y="59" width="10" height="10" class="level-0" rx="2" ry="2"><title>2026-08-25: 0 contributions</title></rect><rect x="438" y="71" width="10" height="10" class="level-0" rx="2" ry="2"><title>2026-08-26: 0 contributions</title></rect><rect x="438" y="83" width="10" height="10" class="level-0" rx="2" ry="2"><title>2026-08-27: 0 contributions</title></rect><rect x="438" y="95" width="10" height="10" class="level-0" rx="2" ry="2"><title>2026-08-28: 0 contributions</title></rect><rect x="438" y="107" width="10" height="10" class="level-0" rx="2" ry="2"><title>2026-08-29: 0 contributions</title></rect><rect x="450" y="35" width="10" height="10" class="level-0" rx="2" ry="2"><title>2026-08-30: 0 contributions</title></rect><rect x="450" y="47" width="10" height="10" class="level-0" rx="2" ry="2"><title>2026-08-31: 0 contributions</title></rect><rect x="450" y="59" width="10" height="10" class="level-0" rx="2" ry="2"><title>2026-09-01: 0 contributions</title></rect><rect x="450" y="71" width="10" height="10" class="level-0" rx="2" ry="2"><title>2026-09-02: 0 contributions</title></rect><rect x="450" y="83" width="10" height="10" class="level-0" rx="2" ry="2"><title>2026-09-03: 0 contributions</title></rect><rect x="450" y="95" width="10" height="10" class="level-0" rx="2" ry="2"><title>2026-09-04: 0 contributions</title></rect><rect x="450" y="107" width="10" height="10" class="level-0" rx="2" ry="2"><title>2026-09-05: 0 contributions</title></rect><rect x="462" y="35" width="10" height="10" class="level-0" rx="2" ry="2"><title>2026-09-06: 0 contributions</title></rect><rect x="462" y="47" width="10" height="10" class="level-0" rx="2" ry="2"><title>2026-09-07: 0 contributions</title></rect><rect x="462" y="59" width="10" height="10" class="level-0" rx="2" ry="2"><title>2026-09-08: 0 contributions</title></rect><rect x="462" y="71" width="10" height="10" class="level-0" rx="2" ry="2"><title>2026-09-09: 0 contributions</title></rect><rect x="462" y="83" width="10" height="10" class="level-0" rx="2" ry="2"><title>2026-09-10: 0 contributions</title></rect><rect x="462" y="95" width="10" height="10" class="level-0" rx="2" ry="2"><title>2026-09-11: 0 contributions</title></rect><rect x="462" y="107" width="10" height="10" class="level-0" rx="2" ry="2"><title>2026-09-12: 0 contributions</title></rect><rect x="474" y="35" width="10" height="10" class="level-0" rx="2" ry="2"><title>2026-09-13: 0 contributions</title></rect><rect x="474" y="47" width="10" height="10" class="level-0" rx="2" ry="2"><title>2026-09-14: 0 contributions</title></rect><rect x="474" y="59" width="10" height="10" class="level-0" rx="2" ry="2"><title>2026-09-15: 0 contributions</title></rect><rect x="474" y="71" width="10" height="10" class="level-0" rx="2" ry="2"><title>2026-09-16: 0 contributions</title></rect><rect x="474" y="83" width="10" height="10" class="level-0" rx="2" ry="2"><title>2026-09-17: 0 contributions</title></rect><rect x="474" y="95" width="10" height="10" class="level-0" rx="2" ry="2"><title>2026-09-18: 0 contributions</title></rect><rect x="474" y="107" width="10" height="10" class="level-0" rx="2" ry="2"><title>2026-09-19: 0 contributions</title></rect><rect x="486" y="35" width="10" height="10" class="level-0" rx="2" ry="2"><title>2026-09-20: 0 contributions</title></rect><rect x="486" y="47" width="10" height="10" class="level-0" rx="2" ry="2"><title>2026-09-21: 0 contributions</title></rect><rect x="486" y="59" width="10" height="10" class="level-0" rx="2" ry="2"><title>2026-09-22: 0 contributions</title></rect><rect x="486" y="71" width="10" height="10" class="level-0" rx="2" ry="2"><title>2026-09-23: 0 contributions</title></rect><rect x="486" y="83" width="10" height="10" class="level-0" rx="2" ry="2"><title>2026-09-24: 0 contributions</title></rect><rect x="486" y="95" width="10" height="10" class="level-0" rx="2" ry="2"><title>2026-09-25: 0 contributions</title></rect><rect x="486" y="107" width="10" height="10" class="level-0" rx="2" ry="2"><title>2026-09-26: 0 contributions</title></rect><rect x="498" y="35" width="10" height="10" class="level-0" rx="2" ry="2"><title>2026-09-27: 0 contributions</title></rect><rect x="498" y="47" width="10" height="10" class="level-0" rx="2" ry="2"><title>2026-09-28: 0 contributions</title></rect><rect x="498" y="59" width="10" height="10" class="level-0" rx="2" ry="2"><title>2026-09-29: 0 contributions</title></rect><rect x="498" y="71" width="10" height="10" class="level-0" rx="2" ry="2"><title>2026-09-30: 0 contributions</title></rect><rect x="498" y="83" width="10" height="10" class="level-0" rx="2" ry="2"><title>2026-10-01: 0 contributions</title></rect><rect x="498" y="95" width="10" height="10" class="level-0" rx="2" ry="2"><title>2026-10-02: 0 contributions</title></rect><rect x="498" y="107" width="10" height="10" class="level-0" rx="2" ry="2"><title>2026-10-03: 0 contributions</title></rect><rect x="510" y="35" width="10" height="10" class="level-0" rx="2" ry="2"><title>2026-10-04: 0 contributions</title></rect><rect x="510" y="47" width="10" height="10" class="level-0" rx="2" ry="2"><title>2026-10-05: 0 contributions</title></rect><rect x="510" y="59" width="10" height="10" class="level-0" rx="2" ry="2"><title>2026-10-06: 0 contributions</title></rect><rect x="510" y="71" width="10" height="10" class="level-0" rx="2" ry="2"><title>2026-10-07: 0 contributions</title></rect><rect x="510" y="83" width="10" height="10" class="level-0" rx="2" ry="2"><title>2026-10-08: 0 contributions</title></rect><rect x="510" y="95" width="10" height="10" class="level-0" rx="2" ry="2"><title>2026-10-09: 0 contributions</title></rect><rect x="510" y="107" width="10" height="10" class="level-0" rx="2" ry="2"><title>2026-10-10: 0 contributions</title></rect><rect x="522" y="35" width="10" height="10" class="level-0" rx="2" ry="2"><title>2026-10-11: 0 contributions</title></rect><rect x="522" y="47" width="10" height="10" class="level-0" rx="2" ry="2"><title>2026-10-12: 0 contributions</title></rect><rect x="522" y="59" width="10" height="10" class="level-0" rx="2" ry="2"><title>2026-10-13: 0 contributions</title></rect><rect x="522" y="71" width="10" height="10" class="level-0" rx="2" ry="2"><title>2026-10-14: 0 contributions</title></rect><rect x="522" y="83" width="10" height="10" class="level-0" rx="2" ry="2"><title>2026-10-15: 0 contributions</title></rect><rect x="522" y="95" width="10" height="10" class="level-0" rx="2" ry="2"><title>2026-10-16: 0 contributions</title></rect><rect x="522" y="107" width="10" height="10" class="level-0" rx="2" ry="2"><title>2026-10-17: 0 contributions</title></rect><rect x="534" y="35" width="10" height="10" class="level-0" rx="2" ry="2"><title>2026-10-18: 0 contributions</title></rect><rect x="534" y="47" width="10" height="10" class="level-0" rx="2" ry="2"><title>2026-10-19: 0 contributions</title></rect><rect x="534" y="59" width="10" height="10" class="level-0" rx="2" ry="2"><title>2026-10-20: 0 contributions</title></rect><rect x="534" y="71" width="10" height="10" class="level-0" rx="2" ry="2"><title>2026-10-21: 0 contributions</title></rect><rect x="534" y="83" width="10" height="10" class="level-0" rx="2" ry="2"><title>2026-10-22: 0 contributions</title></rect><rect x="534" y="95" width="10" height="10" class="level-0" rx="2" ry="2"><title>2026-10-23: 0 contributions</title></rect><rect x="534" y="107" width="10" height="10" class="level-0" rx="2" ry="2"><title>2026-10-24: 0 contributions</title></rect><rect x="546" y="35" width="10" height="10" class="level-0" rx="2" ry="2"><title>2026-10-25: 0 contributions</title></rect><rect x="546" y="47" width="10" height="10" class="level-0" rx="2" ry="2"><title>2026-10-26: 0 contributions</title></rect><rect x="546" y="59" width="10" height="10" class="level-0" rx="2" ry="2"><title>2026-10-27: 0 contributions</title></rect><rect x="546" y="71" width="10" height="10" class="level-0" rx="2" ry="2"><title>2026-10-28: 0 contributions</title></rect><rect x="546" y="83" width="10" height="10" class="level-0" rx="2" ry="2"><title>2026-10-29: 0 contributions</title></rect><rect x="546" y="95" width="10" height="10" class="level-0" rx="2" ry="2"><title>2026-10-30: 0 contributions</title></rect><rect x="546" y="107" width="10" height="10" class="level-0" rx="2" ry="2"><title>2026-10-31: 0 contributions</title></rect><rect x="558" y="35" width="10" height="10" class="level-0" rx="2" ry="2"><title>2026-11-01: 0 contributions</title></rect><rect x="558" y="47" width="10" height="10" class="level-0" rx="2" ry="2"><title>2026-11-02: 0 contributions</title></rect><rect x="558" y="59" width="10" height="10" class="level-0" rx="2" ry="2"><title>2026-11-03: 0 contributions</title></rect><rect x="558" y="71" width="10" height="10" class="level-0" rx="2" ry="2"><title>2026-11-04: 0 contributions</title></rect><rect x="558" y="83" width="10" height="10" class="level-0" rx="2" ry="2"><title>2026-11-05: 0 contributions</title></rect><rect x="558" y="95" width="10" height="10" class="level-0" rx="2" ry="2"><title>2026-11-06: 0 contributions</title></rect><rect x="558" y="107" width="10" height="10" class="level-0" rx="2" ry="2"><title>2026-11-07: 0 contributions</title></rect><rect x="570" y="35" width="10" height="10" class="level-0" rx="2" ry="2"><title>2026-11-08: 0 contributions</title></rect><rect x="570" y="47" width="10" height="10" class="level-0" rx="2" ry="2"><title>2026-11-09: 0 contributions</title></rect><rect x="570" y="59" width="10" height="10" class="level-0" rx="2" ry="2"><title>2026-11-10: 0 contributions</title></rect><rect x="570" y="71" width="10" height="10" class="level-0" rx="2" ry="2"><title>2026-11-11: 0 contributions</title></rect><rect x="570" y="83" width="10" height="10" class="level-0" rx="2" ry="2"><title>2026-11-12: 0 contributions</title></rect><rect x="570" y="95" width="10" height="10" class="level-0" rx="2" ry="2"><title>2026-11-13: 0 contributions</title></rect><rect x="570" y="107" width="10" height="10" class="level-0" rx="2" ry="2"><title>2026-11-14: 0 contributions</title></rect><rect x="582" y="35" width="10" height="10" class="level-0" rx="2" ry="2"><title>2026-11-15: 0 contributions</title></rect><rect x="582" y="47" width="10" height="10" class="level-0" rx="2" ry="2"><title>2026-11-16: 0 contributions</title></rect><rect x="582" y="59" width="10" height="10" class="level-0" rx="2" ry="2"><title>2026-11-17: 0 contributions</title></rect><rect x="582" y="71" width="10" height="10" class="level-0" rx="2" ry="2"><title>2026-11-18: 0 contributions</title></rect><rect x="582" y="83" width="10" height="10" class="level-0" rx="2" ry="2"><title>2026-11-19: 0 contributions</title></rect><rect x="582" y="95" width="10" height="10" class="level-0" rx="2" ry="2"><title>2026-11-20: 0 contributions</title></rect><rect x="582" y="107" width="10" height="10" class="level-0" rx="2" ry="2"><title>2026-11-21: 0 contributions</title></rect><rect x="594" y="35" width="10" height="10" class="level-0" rx="2" ry="2"><title>2026-11-22: 0 contributions</title></rect><rect x="594" y="47" width="10" height="10" class="level-0" rx="2" ry="2"><title>2026-11-23: 0 contributions</title></rect><rect x="594" y="59" width="10" height="10" class="level-0" rx="2" ry="2"><title>2026-11-24: 0 contributions</title></rect><rect x="594" y="71" width="10" height="10" class="level-0" rx="2" ry="2"><title>2026-11-25: 0 contributions</title></rect><rect x="594" y="83" width="10" height="10" class="level-0" rx="2" ry="2"><title>2026-11-26: 0 contributions</title></rect><rect x="594" y="95" width="10" height="10" class="level-0" rx="2" ry="2"><title>2026-11-27: 0 contributions</title></rect><rect x="594" y="107" width="10" height="10" class="level-0" rx="2" ry="2"><title>2026-11-28: 0 contributions</title></rect><rect x="606" y="35" width="10" height="10" class="level-0" rx="2" ry="2"><title>2026-11-29: 0 contributions</title></rect><rect x="606" y="47" width="10" height="10" class="level-0" rx="2" ry="2"><title>2026-11-30: 0 contributions</title></rect><rect x="606" y="59" width="10" height="10" class="level-0" rx="2" ry="2"><title>2026-12-01: 0 contributions</title></rect><rect x="606" y="71" width="10" height="10" class="level-0" rx="2" ry="2"><title>2026-12-02: 0 contributions</title></rect><rect x="606" y="83" width="10" height="10" class="level-0" rx="2" ry="2"><title>2026-12-03: 0 contributions</title></rect><rect x="606" y="95" width="10" height="10" class="level-0" rx="2" ry="2"><title>2026-12-04: 0 contributions</title></rect><rect x="606" y="107" width="10" height="10" class="level-0" rx="2" ry="2"><title>2026-12-05: 0 contributions</title></rect><rect x="618" y="35" width="10" height="10" class="level-0" rx="2" ry="2"><title>2026-12-06: 0 contributions</title></rect><rect x="618" y="47" width="10" height="10" class="level-0" rx="2" ry="2"><title>2026-12-07: 0 contributions</title></rect><rect x="618" y="59" width="10" height="10" class="level-0" rx="2" ry="2"><title>2026-12-08: 0 contributions</title></rect><rect x="618" y="71" width="10" height="10" class="level-0" rx="2" ry="2"><title>2026-12-09: 0 contributions</title></rect><rect x="618" y="83" width="10" height="10" class="level-0" rx="2" ry="2"><title>2026-12-10: 0 contributions</title></rect><rect x="618" y="95" width="10" height="10" class="level-0" rx="2" ry="2"><title>2026-12-11: 0 contributions</title></rect><rect x="618" y="107" width="10" height="10" class="level-0" rx="2" ry="2"><title>2026-12-12: 0 contributions</title></rect><rect x="630" y="35" width="10" height="10" class="level-0" rx="2" ry="2"><title>2026-12-13: 0 contributions</title></rect><rect x="630" y="47" width="10" height="10" class="level-0" rx="2" ry="2"><title>2026-12-14: 0 contributions</title></rect><rect x="630" y="59" width="10" height="10" class="level-0" rx="2" ry="2"><title>2026-12-15: 0 contributions</title></rect><rect x="630" y="71" width="10" height="10" class="level-0" rx="2" ry="2"><title>2026-12-16: 0 contributions</title></rect><rect x="630" y="83" width="10" height="10" class="level-0" rx="2" ry="2"><title>2026-12-17: 0 contributions</title></rect><rect x="630" y="95" width="10" height="10" class="level-0" rx="2" ry="2"><title>2026-12-18: 0 contributions</title></rect><rect x="630" y="107" width="10" height="10" class="level-0" rx="2" ry="2"><title>2026-12-19: 0 contributions</title></rect><rect x="642" y="35" width="10" height="10" class="level-0" rx="2" ry="2"><title>2026-12-20: 0 contributions</title></rect><rect x="642" y="47" width="10" height="10" class="level-0" rx="2" ry="2"><title>2026-12-21: 0 contributions</title></rect><rect x="642" y="59" width="10" height="10" class="level-0" rx="2" ry="2"><title>2026-12-22: 0 contributions</title></rect><rect x="642" y="71" width="10" height="10" class="level-0" rx="2" ry="2"><title>2026-12-23: 0 contributions</title></rect><rect x="642" y="83" width="10" height="10" class="level-0" rx="2" ry="2"><title>2026-12-24: 0 contributions</title></rect><rect x="642" y="95" width="10" height="10" class="level-0" rx="2" ry="2"><title>2026-12-25: 0 contributions</title></rect><rect x="642" y="107" width="10" height="10" class="level-0" rx="2" ry="2"><title>2026-12-26: 0 contributions</title></rect><rect x="654" y="35" width="10" height="10" class="level-0" rx="2" ry="2"><title>2026-12-27: 0 contributions</title></rect><rect x="654" y="47" width="10" height="10" class="level-0" rx="2" ry="2"><title>2026-12-28: 0 contributions</title></rect><rect x="654" y="59" width="10" height="10" class="level-0" rx="2" ry="2"><title>2026-12-29: 0 contributions</title></rect><rect x="654" y="71" width="10" height="10" class="level-0" rx="2" ry="2"><title>2026-12-30: 0 contributions</title></rect><rect x="654" y="83" width="10" height="10" class="level-0" rx="2" ry="2"><title>2026-12-31: 0 contributions</title></rect><text x="506" y="144" font-family="-apple-system, BlinkMacSystemFont, Segoe UI, Helvetica, Arial, sans-serif" font-size="9" class="text-secondary">Less</text><rect x="536" y="136" width="10" height="10" class="level-0" rx="2" ry="2"/><rect x="548" y="136" width="10" height="10" class="level-1" rx="2" ry="2"/><rect x="560" y="136" width="10" height="10" class="level-2" rx="2" ry="2"/><rect x="572" y="136" width="10" height="10" class="level-3" rx="2" ry="2"/><rect x="584" y="136" width="10" height="10" class="level-4" rx="2" ry="2"/><text x="601" y="144" font-family="-apple-system, BlinkMacSystemFont, Segoe UI, Helvetica, Arial, sans-serif" font-size="9" class="text-secondary">More</text><text x="10" y="154" font-family="-apple-system, BlinkMacSystemFont, Segoe UI, Helvetica, Arial, sans-serif" font-size="11" class="text-secondary">366 contributions in 2026</text></svg>