<svg width="460" height="32" xmlns="http://www.w3.org/2000/svg"><rect width="460" height="32" fill="none"/><rect x="0" y="5" width="12" height="12" fill="#ebedf0" rx="2"><title>2026-01-06: 0 commits</title></rect><text x="0" y="27" font-family="sans-serif" font-size="8" fill="#999">06</text><rect x="15" y="5" width="12" height="12" fill="#ebedf0" rx="2"><title>2026-01-07: 0 commits</title></rect><rect x="30" y="5" width="12" height="12" fill="#9be9a8" rx="2"><title>2026-01-08: 4 commits</title></rect><rect x="45" y="5" width="12" height="12" fill="#9be9a8" rx="2"><title>2026-01-09: 1 commits</title></rect><rect x="60" y="5" width="12" height="12" fill="#ebedf0" rx="2"><title>2026-01-10: 0 commits</title></rect><rect x="75" y="5" width="12" height="12" fill="#ebedf0" rx="2"><title>2026-01-11: 0 commits</title></rect><text x="75" y="27" font-family="sans-serif" font-size="8" fill="#999">11</text><rect x="90" y="5" width="12" height="12" fill="#ebedf0" rx="2"><title>2026-01-12: 0 commits</title></rect><rect x="105" y="5" width="12" height="12" fill="#ebedf0" rx="2"><title>2026-01-13: 0 commits</title></rect><rect x="120" y="5" width="12" height="12" fill="#ebedf0" rx="2"><title>2026-01-14: 0 commits</title></rect><rect x="135" y="5" width="12" height="12" fill="#ebedf0" rx="2"><title>2026-01-15: 0 commits</title></rect><rect x="150" y="5" width="12" height="12" fill="#ebedf0" rx="2"><title>2026-01-16: 0 commits</title></rect><text x="150" y="27" font-family="sans-serif" font-size="8" fill="#999">16</text><rect x="165" y="5" width="12" height="12" fill="#ebedf0" rx="2"><title>2026-01-17: 0 commits</title></rect><rect x="180" y="5" width="12" height="12" fill="#ebedf0" rx="2"><title>2026-01-18: 0 commits</title></rect><rect x="195" y="5" width="12" height="12" fill="#216e39" rx="2"><title>2026-01-19: 22 commits</title></rect><rect x="210" y="5" width="12" height="12" fill="#40c463" rx="2"><title>2026-01-20: 6 commits</title></rect><rect x="225" y="5" width="12" height="12" fill="#9be9a8" rx="2"><title>2026-01-21: 3 commits</title></rect><text x="225" y="27" font-family="sans-serif" font-size="8" fill="#999">21</text><rect x="240" y="5" width="12" height="12" fill="#216e39" rx="2"><title>2026-01-22: 18 commits</title></rect><rect x="255" y="5" width="12" height="12" fill="#40c463" rx="2"><title>2026-01-23: 6 commits</title></rect><rect x="270" y="5" width="12" height="12" fill="#9be9a8" rx="2"><title>2026-01-24: 4 commits</title></rect><rect x="285" y="5" width="12" height="12" fill="#ebedf0" rx="2"><title>2026-01-25: 0 commits</title></rect><rect x="300" y="5" width="12" height="12" fill="#40c463" rx="2"><title>2026-01-26: 8 commits</title></rect><text x="300" y="27" font-family="sans-serif" font-size="8" fill="#999">26</text><rect x="315" y="5" width="12" height="12" fill="#40c463" rx="2"><title>2026-01-27: 7 commits</title></rect><rect x="330" y="5" width="12" height="12" fill="#40c463" rx="2"><title>2026-01-28: 10 commits</title></rect><rect x="345" y="5" width="12" height="12" fill="#9be9a8" rx="2"><title>2026-01-29: 1 commits</title></rect><rect x="360" y="5" width="12" height="12" fill="#40c463" rx="2"><title>2026-01-30: 9 commits</title></rect><rect x="375" y="5" width="12" height="12" fill="#9be9a8" rx="2"><title>2026-01-31: 4 commits</title></rect><text x="375" y="27" font-family="sans-serif" font-size="8" fill="#999">31</text><rect x="390" y="5" width="12" height="12" fill="#ebedf0" rx="2"><title>2026-02-01: 0 commits</title></rect><rect x="405" y="5" width="12" height="12" fill="#40c463" rx="2"><title>2026-02-02: 6 commits</title></rect><rect x="420" y="5" width="12" height="12" fill="#30a14e" rx="2"><title>2026-02-03: 13 commits</title></rect><rect x="435" y="5" width="12" height="12" fill="#216e39" rx="2"><title>2026-02-04: 19 commits</title></rect></svg>